<svg xmlns="http://www.w3.org/2000/svg" width="21" height="24" fill="none">
    <path fill="#F10657"
          d="M2.414 23.48c-.61 0-1.128-.212-1.55-.635a2.109 2.109 0 0 1-.635-1.55V5.122c0-.61.212-1.127.635-1.55.422-.423.94-.634 1.55-.634h1.672V1.31a.9.9 0 0 1 .267-.664.9.9 0 0 1 .663-.265.9.9 0 0 1 .663.265.9.9 0 0 1 .266.664v1.627h9.156v-1.65c0-.257.087-.473.26-.646a.878.878 0 0 1 .646-.26c.258 0 .473.086.646.26.174.173.26.389.26.646v1.65h1.674c.61 0 1.127.211 1.55.634.422.423.634.94.634 1.55v16.173c0 .61-.212 1.127-.634 1.55-.424.423-.94.634-1.55.634H2.414Zm0-1.813h16.172a.355.355 0 0 0 .256-.117.355.355 0 0 0 .116-.255V9.955H2.042v11.34c0 .093.038.178.116.255a.355.355 0 0 0 .256.117ZM2.042 8.143h16.916V5.122a.354.354 0 0 0-.116-.256.355.355 0 0 0-.255-.116H2.414a.355.355 0 0 0-.256.116.355.355 0 0 0-.116.256v3.02ZM10.5 14.51a1.03 1.03 0 0 1-.756-.313 1.03 1.03 0 0 1-.313-.756c0-.296.104-.548.313-.757.208-.208.46-.312.756-.312s.548.104.756.312c.209.209.313.46.313.757 0 .296-.104.548-.313.756a1.03 1.03 0 0 1-.756.313Zm-4.833 0a1.03 1.03 0 0 1-.757-.313 1.03 1.03 0 0 1-.312-.756c0-.296.104-.548.312-.757.209-.208.46-.312.757-.312.296 0 .548.104.756.312.208.209.312.46.312.757 0 .296-.104.548-.312.756a1.03 1.03 0 0 1-.756.313Zm9.666 0a1.03 1.03 0 0 1-.756-.313 1.03 1.03 0 0 1-.312-.756c0-.296.104-.548.312-.757.208-.208.46-.312.756-.312s.548.104.757.312c.208.209.312.46.312.757 0 .296-.104.548-.312.756a1.03 1.03 0 0 1-.757.313ZM10.5 19.25a1.03 1.03 0 0 1-.756-.313 1.03 1.03 0 0 1-.313-.756c0-.296.104-.548.313-.756a1.03 1.03 0 0 1 .756-.313c.296 0 .548.104.756.313.209.208.313.46.313.756s-.104.548-.313.756a1.03 1.03 0 0 1-.756.313Zm-4.833 0a1.03 1.03 0 0 1-.757-.313 1.03 1.03 0 0 1-.312-.756c0-.296.104-.548.312-.756a1.03 1.03 0 0 1 .757-.313c.296 0 .548.104.756.313.208.208.312.46.312.756s-.104.548-.312.756a1.03 1.03 0 0 1-.756.313Zm9.666 0a1.03 1.03 0 0 1-.756-.313 1.03 1.03 0 0 1-.312-.756c0-.296.104-.548.312-.756a1.03 1.03 0 0 1 .756-.313c.296 0 .548.104.757.313.208.208.312.46.312.756s-.104.548-.312.756a1.03 1.03 0 0 1-.757.313Z"/>
</svg>
