<svg xmlns="http://www.w3.org/2000/svg" width="38" height="38" fill="none">
    <path fill="#fff"
          d="M37.333 18.991c0 10.125-8.208 18.334-18.333 18.334C8.875 37.325.667 29.116.667 18.99S8.875.658 19 .658c10.125 0 18.333 8.208 18.333 18.333Zm-17.676-4.799c-1.783.742-5.347 2.277-10.691 4.606-.868.345-1.323.683-1.364 1.013-.07.558.628.777 1.58 1.076.13.041.263.083.4.128.937.304 2.196.66 2.85.674.594.013 1.257-.232 1.989-.734 4.993-3.37 7.571-5.075 7.733-5.111.114-.026.272-.059.38.036.107.096.096.276.085.325-.07.295-2.812 2.845-4.231 4.164-.424.393-.836.795-1.252 1.196-.87.838-1.521 1.467.036 2.494 1.58 1.04 3.17 2.079 4.71 3.177.76.541 1.443 1.028 2.286.95.49-.045.996-.505 1.253-1.88.607-3.246 1.801-10.28 2.077-13.18a3.233 3.233 0 0 0-.03-.722c-.025-.142-.076-.346-.262-.496-.22-.178-.558-.216-.71-.213-.69.012-1.747.38-6.839 2.497Z"/>
</svg>
